# xmcd
# 
# Track frame offsets:
#     150
#     12327
#     24859
#     38091
#     50726
#     61387
#     73698
#     85941
#     98769
#     110746
#     125535
#     140055
#     151020
#     173343
#     197121
#     212629
#     227556
#     240696
#     254707
#     266583
#     282455
#     296623
#     308506
#     323624
#     338547
# 
# Disc length: 4752
# 
# Revision: 9
# Processed by: cddbd v1.5.2PL0 Copyright (c) Steve Scherf et al.
# Submitted via: fre:ac v1.0.31
# 
DISCID=63128e19
DTITLE=Various Artist - Dolly Disc 3
DYEAR=2009
DGENRE=Folk/Country
TTITLE0=Dolly Parton - Jolene
TTITLE1=Dolly Parton - Early Morning Breeze
TTITLE2=Dolly Parton - I Will Always Love You
TTITLE3=Porter Wagoner and Dolly Parton - Please Don't Stop Loving Me
TTITLE4=Dolly Parton - Love Is Like a Butterfly
TTITLE5=Dolly Parton - Sacred Memories
TTITLE6=Dolly Parton - The Bargain Store
TTITLE7=Dolly Parton - On My Mind Again
TTITLE8=Dolly Parton - Kentucky Gambler
TTITLE9=Dolly Parton - The Seeker
TTITLE10=Dolly Parton - We Used to
TTITLE11=Dolly Parton - All I Can Do
TTITLE12=Dolly Parton - Light of a Clear Blue Morning
TTITLE13=Dolly Parton - You Are
TTITLE14=Dolly Parton - Applejack
TTITLE15=Dolly Parton - It's All Wrong, but It's All Right
TTITLE16=Dolly Parton - Here You Come Again
TTITLE17=Dolly Parton - Two Doors Down
TTITLE18=Dolly Parton - Me and Little Andy
TTITLE19=Dolly Parton - Heartbreaker
TTITLE20=Dolly Parton - I Really Got the Feeling
TTITLE21=Dolly Parton - Baby I'm Burnin'
TTITLE22=Dolly Parton - You're the Only One
TTITLE23=Dolly Parton - Sweet Summer Lovin'
TTITLE24=Dolly Parton - Starting Over Again
EXTD=YEAR: 2009
EXTT0=
EXTT1=
EXTT2=
EXTT3=
EXTT4=
EXTT5=
EXTT6=
EXTT7=
EXTT8=
EXTT9=
EXTT10=
EXTT11=
EXTT12=
EXTT13=
EXTT14=
EXTT15=
EXTT16=
EXTT17=
EXTT18=
EXTT19=
EXTT20=
EXTT21=
EXTT22=
EXTT23=
EXTT24=
PLAYORDER=
